# xmcd CD database file
#
# Track frame offsets:
#        150
#        14812
#        27487
#        37124
#        52658
#        62923
#        73498
#        86060
#        96635
#        112235
#
# Disc length: 1615 seconds
#
# Revision: 0
# Processed by: cddbd v1.5.2PL0 Copyright (c) Steve Scherf et al.
# Submitted via: CUERipper 2.1.5
#
DISCID=9c064d0a
DTITLE=Rusty Pinto with CC Jerome and his Savoys - One More Time
DYEAR=2015
DGENRE=Rockabilly
TTITLE0=Mary Lou
TTITLE1=Just One More TIme
TTITLE2=Shirley
TTITLE3=Deacon Jones' Wife
TTITLE4=Hold My Hand
TTITLE5=Am I
TTITLE6=Stumbling Block Blues
TTITLE7=One More Year To Go
TTITLE8=Woke Up This Morning
TTITLE9=Flirty Mae
EXTD=
EXTT0=
EXTT1=
EXTT2=
EXTT3=
EXTT4=
EXTT5=
EXTT6=
EXTT7=
EXTT8=
EXTT9=
PLAYORDER=
